<svg xmlns="http://www.w3.org/2000/svg" xmlns:xlink="http://www.w3.org/1999/xlink" viewBox="0 0 2666.7 2666.7" xmlns:v="https://vecta.io/nano"><defs><linearGradient id="A" x2="1" gradientTransform="matrix(43.903 -1514.6 -1514.6 -43.903 959.89 1827.2)" xlink:href="#Q"><stop stop-color="#f2f91c" offset="0"/><stop stop-color="#278a2a" offset=".552"/></linearGradient><clipPath id="B"><path d="M0 2000h2000V0H0z"/></clipPath><linearGradient id="C" x2="1" gradientTransform="matrix(-1.8285 -90.513 -90.513 1.8285 344.81 503.03)" xlink:href="#Q"><stop stop-color="#54b830" offset="0"/><stop stop-color="#237d26" offset=".731"/></linearGradient><clipPath id="D"><path d="M0 2000h2000V0H0z"/></clipPath><linearGradient id="E" x2="1" gradientTransform="matrix(-1.8285 -90.513 -90.513 1.8285 645.4 496.96)" xlink:href="#Q"><stop stop-color="#54b830" offset="0"/><stop stop-color="#237d26" offset=".731"/></linearGradient><clipPath id="F"><path d="M0 2000h2000V0H0z"/></clipPath><linearGradient id="G" x2="1" gradientTransform="matrix(-1.8285 -90.513 -90.513 1.8285 525.83 499.37)" xlink:href="#Q"><stop stop-color="#54b830" offset="0"/><stop stop-color="#237d26" offset=".731"/></linearGradient><clipPath id="H"><path d="M0 2000h2000V0H0z"/></clipPath><linearGradient id="I" x2="1" gradientTransform="matrix(-1.8284 -90.511 -90.511 1.8284 832.89 493.16)" xlink:href="#Q"><stop stop-color="#54b830" offset="0"/><stop stop-color="#237d26" offset=".731"/></linearGradient><clipPath id="J"><path d="M0 2000h2000V0H0z"/></clipPath><linearGradient id="K" x2="1" gradientTransform="matrix(-1.8284 -90.511 -90.511 1.8284 1087.8 488.01)" xlink:href="#Q"><stop stop-color="#54b830" offset="0"/><stop stop-color="#237d26" offset=".731"/></linearGradient><clipPath id="L"><path d="M0 2000h2000V0H0z"/></clipPath><linearGradient id="M" x2="1" gradientTransform="matrix(-1.8285 -90.514 -90.514 1.8285 1342.9 482.85)" xlink:href="#Q"><stop stop-color="#54b830" offset="0"/><stop stop-color="#237d26" offset=".731"/></linearGradient><clipPath id="N"><path d="M0 2000h2000V0H0z"/></clipPath><linearGradient id="O" x2="1" gradientTransform="matrix(-1.8285 -90.514 -90.514 1.8285 1578.3 478.09)" xlink:href="#Q"><stop stop-color="#54b830" offset="0"/><stop stop-color="#237d26" offset=".731"/></linearGradient><clipPath id="P"><path d="M0 2000h2000V0H0z"/></clipPath><linearGradient id="Q" gradientUnits="userSpaceOnUse"/></defs><g transform="matrix(1.3333 0 0 -1.3333 0 2666.7)"><path d="M965.62 1793.9c-49.448-2.47-95.874-13.24-137.99-32.011-42.067-18.752-80.609-45.831-114.58-80.504a47.13 47.13 0 0 1-2.261.054 49.75 49.75 0 0 1-1.796-.032 153 153 0 0 1-5.095.085c-49.943 0-91.003-24.33-122.04-72.315-15.52-23.994-24.075-48.462-25.429-72.724-.835-14.964 1.11-29.63 5.782-43.592 2.645-7.901 6.169-15.592 10.537-23.001l-30.155-60.832-10.213-21.235-6.564-13.717-2.277-.995c-6.423-2.799-13.704-5.971-21.057-9.999l-3.021-1.652c-17.852-9.768-36.312-19.868-54.155-32.219-11.316-7.834-19.044-18.065-22.54-29.429a87.44 87.44 0 0 1-6.832-2.89c-12.729-6.041-23.838-15.128-33.019-27.01-2.991-3.869-6.495-7.787-10.554-12.326-5.98-6.687-12.758-14.265-18.928-23.11-18.127-25.987-33.443-49.521-46.822-71.948-11.07-18.555-12.443-39.15-3.771-56.501.838-1.676 1.755-3.296 2.749-4.86-1.496-12.64 1.702-25.681 9.541-38.852l4.416-7.626 6.536-11.187 7.313-12.374.028-.049c6.353-10.9 13.553-23.253 22.218-34.938 23.883-32.201 54.235-59.147 90.207-80.086l1.214-.707c16.697-9.721 35.048-20.405 55.781-28.309-.048-15.499 2.473-30.883 7.549-45.966 8.272-24.583 21.124-46.484 38.202-65.096 11.173-12.177 24.21-22.994 38.936-32.329l-38.601.459c-2.594 0-5.247-.004-7.968-.015l-15.97-.066v.024l-60.883-.3-21.003-.099-21.976-.116-130.26-.754-72.837-.466v-537.27l95.533 30.428a2221.46 2221.46 0 0 0 89.723 26.505l42.032 11.46 42.659 9.844c30.083 6.941 60.748 13.341 91.143 19.02l13.856 2.587 13.974 2.428a2226.72 2226.72 0 0 0 85.282 13.108l62.912 8.422.054 5.114 3.963-.866c15.407-3.197 32.185-4.818 49.869-4.818 7.442 0 15.219.285 23.118.847 27.361 1.949 52.194 6.822 73.814 14.486 18.029 6.393 34.001 14.712 47.715 24.839 10.898-7.907 23.427-14.692 37.804-20.498 21.889-8.848 45.476-13.766 70.112-14.615 2.436-.084 4.884-.127 7.27-.127 12.91 0 25.262 1.263 36.845 3.76l22.35-1.426 58.099-4.473 73.204-6.601c15.907-6.646 32.555-11.293 49.717-13.864 9.27-1.392 18.332-2.099 26.928-2.098 6.088 0 12.087.356 17.935 1.06l21.138-3.757 57.428-10.989 39.393-8.078 39.004-9.485a2222.6 2222.6 0 0 0 83.64-22.075l93.773-26.716-.868 210.37 64.925 209.64 27.851 93.681-97.642.624-86.89.519-25.114.141-24.203.125-86.914.413-62.668.273c3.108 2.03 6.248 4.185 9.36 6.489 26.18 19.394 45.791 41.595 58.285 65.987 11.279 22.019 16.919 45.869 16.85 71.137 9.087 3.368 18.312 7.076 27.579 11.603 35.724 17.453 67.506 39.78 94.463 66.36 30.888 30.455 50.052 65.214 68.553 101.13 5.867 11.389 8.309 22.677 7.259 33.549l-.137 1.252.19.315c5.366 8.989 12.82 27.9 2.46 53.551-1.461 3.62-3.193 7.188-5.453 11.229-19.007 33.985-43.051 67.3-75.665 104.84-11.329 13.041-24.468 22.368-39.285 27.918-2.247 7.219-6.479 15.084-13.975 22.848-7.014 7.265-14.987 14.761-25.74 20.37l-35.088 17.697-27.701 13.889c-2.941 5.804-5.823 11.98-8.629 17.994l-6.939 14.651-10.499 21.076-8.282 16.564c-1.368 2.775-2.704 5.831-4.261 9.382-2.334 5.334-4.847 11.074-7.973 16.97 16.065 26.441 20.482 57.333 12.367 88.546-5.483 21.099-14.377 40.386-26.435 57.325-12.054 16.934-27.363 31.653-45.501 43.745-20.748 13.83-43.942 20.843-68.943 20.843-3.717 0-7.488-.159-11.293-.475-17.758 18.492-37.58 35.076-59.097 49.424-24.508 16.343-51.921 30.254-81.478 41.344-41.022 15.391-85.848 22.872-137.04 22.872-9.355 0-19.155-.253-29.127-.75" fill="url(#A)"/><g clip-path="url(#B)"><path d="M1486.7 459.3l.207-.653.721-89.495zm249.52 250.23l-53.843.344-86.865.521-25.099.139-24.204.126-86.886.412-57.193.248 1.982-5.684c-18.682 7.139-39.92 11.004-64.308 11.743-.777 4.993-.746 10.286.169 15.564 1.839 10.605 6.951 19.243 14.022 23.702 3.484 2.196 7.141 4.373 10.678 6.478 7.293 4.342 14.836 8.832 21.925 14.083 22.075 16.353 38.421 34.704 48.585 54.547 11.301 22.061 15.385 46.662 12.138 73.12-.403 3.293-.062 4.78.204 5.141.23.309 1.189 1.179 5.154 2.578l2.273.801c13.099 4.613 26.646 9.383 39.497 15.662 32.52 15.888 61.392 36.152 85.811 60.229 27.432 27.047 45.17 59.313 62.403 92.765 5.858 11.373 5.067 20.171-2.739 27.749 5.886 2.427 9.2 6.067 11.049 9.166 2.729 4.571 4.979 12.505.2 24.339-.93 2.305-2.092 4.68-3.658 7.478-17.878 31.966-40.688 63.528-71.787 99.327-13.266 15.272-29.485 22.696-49.583 22.696a87.71 87.71 0 0 1-1.025-.007c2.805 2.644 4.552 5.688 5.217 9.11 1.153 5.939-1.101 11.89-6.701 17.69-4.738 4.908-10.373 10.447-17.291 14.056l-34.481 17.388-33.019 16.629c-2.577 1.34-5.355 4.111-6.755 6.738-4.163 7.807-8.024 16.081-11.758 24.084l-6.698 14.142-10.311 20.698-8.41 16.822c-1.697 3.445-3.245 6.981-4.885 10.725-3.593 8.206-7.307 16.69-12.767 24.342-4.377 6.134-3.897 8.469.024 13.316 17.008 21.021 22.344 46.189 15.431 72.784-8.986 34.568-28.615 62.144-58.343 81.963-15.252 10.169-32.316 15.325-50.715 15.325-6.694 0-13.675-.689-20.748-2.046-1.099-.211-1.96-.317-2.559-.317-.448 0-.745 0-2.003 1.433-18.465 21.06-39.766 39.699-63.311 55.4-22.419 14.951-47.582 27.707-74.789 37.915-37.267 13.983-78.318 20.78-125.5 20.78-8.808 0-18.056-.239-27.487-.71-45.382-2.267-87.858-12.093-126.25-29.206-38.863-17.323-74.498-42.539-105.91-74.946l-1.69-1.757c-5.356-5.589-8.827-9.016-12.543-9.016-1.41 0-3.092.453-4.999 1.347-1.544.725-3.205 1.077-5.078 1.077-.544 0-1.02-.03-1.367-.051-.074 0-.148-.01-.222-.014a121.33 121.33 0 0 1-5.302.117c-38.613 0-69.504-18.739-94.439-57.29-12.373-19.128-19.169-38.195-20.201-56.671-1.209-21.663 5.539-41.827 20.058-59.941.242-1.865-.5-6.319-.869-8.539l-.199-1.201c-.267-.475-.957-1.392-1.43-2.021-1.025-1.364-2.302-3.062-3.313-5.082l-31.393-63.302-10.046-20.887-9.814-20.413-.577-1.199c-.419-.878-1.078-2.262-1.533-2.964-4.322-2.174-8.772-4.114-13.47-6.161-6.072-2.646-12.351-5.382-18.418-8.704l-3.023-1.655c-17.109-9.361-34.801-19.04-51.223-30.409-9.387-6.498-10.844-13.378-10.413-18.006.3-3.223 1.715-7.334 6.027-11.273l-1.946.021c-20.776 0-36.724-7.568-48.753-23.136-3.713-4.806-7.769-9.34-12.062-14.14-5.622-6.286-11.435-12.786-16.468-20.002-17.678-25.341-32.577-48.232-45.552-69.98-7.12-11.935-4.682-20.724-2.594-24.901 2.445-4.892 6.749-8.627 12.497-10.958-2.74-2.698-5.121-6.096-6.125-10.367-1.854-7.884 1.828-15.341 4.758-20.264l4.701-8.116 6.088-10.428 7.658-12.954c6.213-10.66 12.638-21.683 20.218-31.903 21.209-28.597 48.24-52.572 80.341-71.257l1.21-.705c21.613-12.583 43.962-25.595 69.691-31.892 3.499-.856 4.146-1.697 4.152-1.706s.586-1.001-.04-4.573c-3.187-18.197-1.789-36.382 4.156-54.048 13.654-40.576 41.808-71.26 83.679-91.197 8.897-4.238 16.253-15.929 18.738-29.787 1.64-9.144.886-17.695-1.973-24.338l-3.562.652c-17.422 2.882-46.7 4.282-89.506 4.282-2.555 0-5.167-.004-7.834-.013l-48.985-.215v.01l-27.846-.138-20.986-.1-9.09-.048v-.002l-143.11-.82-40.165-.256v-459.55l52.68 16.78c30.013 9.56 60.647 18.61 91.054 26.898l29.633 8.079.749 137.87 6.828 1.014-1.223-136.87 49.959 11.528c30.536 7.046 61.656 13.539 92.496 19.302l14.053 2.625 14.187 2.465c28.614 4.971 57.733 9.446 86.547 13.304l34.692 4.643.259 24.576c12.259-7.874 26.661-13.554 43.01-16.945 13.216-2.743 27.75-4.134 43.194-4.134 6.666 0 13.659.257 20.785.765 24.413 1.739 46.338 6.005 65.169 12.681 21.372 7.576 38.979 18.211 52.334 31.608 2.249 2.256 4.382 4.579 6.39 6.96 1.042-1.266 2.117-2.513 3.222-3.74 11.482-12.757 26.812-22.896 46.863-30.993 18.319-7.406 38.144-11.524 58.926-12.242a180.28 180.28 0 0 1 6.145-.107c13.292 0 25.649 1.592 36.836 4.734l.43-.933 24.019-1.533 58.958-4.539 44.424-4.006-.144 17.075c6.62-5.031 14.036-9.765 22.355-14.28a176.53 176.53 0 0 1 58.215-19.486c7.662-1.151 15.081-1.734 22.049-1.733 7.705 0 15.109.71 22.122 2.121l.553-1.39 22.148-3.935 58.277-11.153 48.933-10.034.003-.342 30.626-7.446c28.335-6.891 56.892-14.428 84.878-22.402l51.709-14.733-.708 171.86 66.312 213.89z"/><path d="M1724 700.47l-41.678.266-86.856.52-25.096.14-24.204.125-86.879.413-44.27.192 4.885-14.007a158.82 158.82 0 0 1-5.484 2.949c-22.744 11.65-49.99 17.313-83.372 17.313-33.164-.014-61.368-6.327-83.844-18.776-18.565-10.297-31.723-21.892-39.833-35.153-9.555 15.625-25.643 28.645-47.946 38.758-22.524 10.209-49.329 15.172-81.956 15.171-33.096-.009-61.131-5.905-83.329-17.53-18.833-9.867-32.221-21.126-40.534-34.142-3.714 5.496-8.163 10.751-13.356 15.739-13.035 12.512-29.924 21.875-50.202 27.828-18.317 5.373-38.91 8.099-61.224 8.105-23.813 0-45.208-3.018-63.579-8.967-20.364-6.585-37.135-16.618-49.836-29.807-4.673-4.848-8.712-9.949-12.138-15.274-2.833 4.992-6.143 9.56-9.942 13.714-14.685 16.025-33.64 26.067-56.374 29.855-16.926 2.798-45.716 4.16-88.017 4.16-2.544 0-5.145-.005-7.797-.015l-58.157-.256v.006l-18.668-.092-20.986-.099v-.004l-152.18-.866-31.09-.199v-437.96l40.777 12.989a2269.68 2269.68 0 0 0 91.423 27.007l22.937 6.253.755 138.74 25.147 3.731-1.215-135.94 38.671 8.923c30.652 7.072 61.898 13.592 92.871 19.38l14.112 2.636 14.243 2.475c28.736 4.991 57.972 9.485 86.897 13.356l26.853 3.595.372 35.162 1.614-1.521c13.466-12.245 31.025-20.681 52.187-25.071 12.607-2.616 26.516-3.943 41.341-3.943 6.445 0 13.22.249 20.136.742 23.593 1.681 44.711 5.777 62.768 12.179 20.076 7.117 36.534 17.024 48.918 29.448 5.032 5.047 9.342 10.355 12.94 15.894 2.843-4.475 6.146-8.82 9.924-13.012 10.531-11.701 24.762-21.069 43.496-28.636 17.327-7.004 36.107-10.9 55.818-11.581 1.963-.067 3.926-.102 5.833-.102 15.125 0 28.879 2.175 40.886 6.468l.847.308 1.543-3.34 18.589-1.186 59.198-4.558 34.386-3.102-.231 27.634c9.302-9.925 21.157-18.748 36.015-26.811a167.41 167.41 0 0 1 55.214-18.483c7.213-1.082 14.176-1.632 20.696-1.632 9.796 0 19.024 1.239 27.425 3.679l.239.07 1.612-4.046 17.143-3.047 58.513-11.198 37.967-7.786-1.968 191.46 19.082-59.616 1.098-136.18 23.706-5.765c28.435-6.914 57.107-14.482 85.223-22.492l40.025-11.405-.664 161.16 66.697 215.07z"/><path d="M296.63 669.41l160.09.906-.525-64.218-65.411-3.604-.347-63.938 58.101 6-.486-61.368-57.964-8.779-.77-141.62c-31.04-8.462-61.943-17.589-92.689-27.382z" fill="#fff"/><path d="M300.54 665.52V310.75c28.026 8.854 56.542 17.262 84.883 25.028l.772 141.97 3.278.522 54.694 8.309.425 53.651-53.734-5.571-4.356-.473.391 71.998 3.664.214 61.757 3.415.463 56.564-152.24-.862m-7.822-365.47v373.25l3.886.026 160.1.905 3.963.019-.588-71.87-3.679-.19-61.722-3.392-.303-55.878 53.785 5.533 4.326.423-.547-69.084-3.33-.478-54.626-8.25-.767-141.27-2.867-.782a2296.2 2296.2 0 0 1-92.531-27.335z" fill="#0f0"/><path d="M573.63 620.12l-.715-65.905c10.626.809 18.09 2.525 22.384 5.17 4.295 2.651 6.513 10.37 6.655 23.204l.176 16.014c.103 9.233-1.891 15.209-5.976 17.954-4.089 2.739-11.598 3.942-22.524 3.563m-94.003 50.306l66.927.295c44.618.17 74.814-1.118 90.585-3.727 15.768-2.628 28.571-9.38 38.419-20.126 9.843-10.762 14.646-27.87 14.395-51.563-.228-21.633-3.909-36.34-11.042-44.261-7.135-7.911-21.066-13.358-41.776-16.482 18.702-2.208 31.258-6.096 37.65-11.597s10.35-10.667 11.874-15.525 2.168-18.506 1.93-40.942l-.777-73.333a2292.78 2292.78 0 0 1-88.1-13.542l1.069 96.805c.173 15.589-1.258 25.082-4.286 28.505-3.03 3.409-11.06 4.501-24.08 3.149l-1.449-133.64a2288.04 2288.04 0 0 1-94.158-19.648l2.819 315.63" fill="#fff"/><path d="M577.5 616.27l-.626-57.759c9.496 1.052 14.129 2.822 16.376 4.206 1.383.853 4.624 4.505 4.794 19.913l.177 16.014c.084 7.668-1.384 12.737-4.246 14.66-2.012 1.348-6.508 2.958-16.475 2.966m-8.542-66.285l.802 73.915 3.735.13c11.856.411 19.968-.962 24.835-4.221 5.31-3.568 7.831-10.519 7.712-21.252l-.177-16.014c-.16-14.588-2.865-23.007-8.511-26.493-4.868-2.997-12.763-4.874-24.141-5.741zm-85.454 116.54l-2.74-306.81a2300.92 2300.92 0 0 0 86.327 17.981l1.452 133.92 3.469.361c3.736.388 7.142.585 10.124.585 8.623 0 14.276-1.645 17.282-5.027 2.587-2.925 5.519-9.101 5.275-31.15l-1.017-92.105a2307.51 2307.51 0 0 0 80.262 12.314l.741 69.947c.289 27.3-.792 36.672-1.751 39.727-1.287 4.104-4.886 8.724-10.695 13.73-3.978 3.424-13.378 8.059-35.555 10.676l-28.925 3.416 28.8 4.345c19.752 2.979 33.027 8.105 39.455 15.234 6.442 7.152 9.819 21.174 10.035 41.677.238 22.475-4.26 38.92-13.369 48.878-9.242 10.086-21.415 16.449-36.176 18.908-15.726 2.603-45.974 3.847-89.928 3.674l-63.066-.276m-10.65-316.67l2.897 324.46 3.858.018 66.93.295 7.714.015c40.206 0 68.308-1.276 83.524-3.794 16.53-2.754 30.21-9.935 40.664-21.343 10.642-11.635 15.687-29.379 15.424-54.25-.241-22.784-4.182-38.105-12.048-46.841-5.136-5.696-13.166-10.158-24.325-13.484 8.944-2.284 15.502-5.269 19.843-9.006 7.031-6.058 11.301-11.723 13.056-17.319 1.062-3.384 2.435-11.435 2.11-42.156l-.813-76.724-3.357-.449c-29.274-3.918-58.865-8.467-87.949-13.52l-4.632-.803 1.122 101.51c.217 19.729-2.238 24.66-3.304 25.865-.494.556-2.799 2.395-11.432 2.395a80.57 80.57 0 0 1-5.847-.234l-1.446-133.31-3.158-.591a2296.33 2296.33 0 0 1-93.998-19.615z" fill="#0f0"/><path d="M848.49 604.04c.077 12.218-.813 20.023-2.665 23.411s-5.705 5.051-11.556 4.985c-4.949-.057-8.748-1.487-11.391-4.302s-4.019-11.035-4.12-24.663l-.911-123.62c-.113-15.369.684-24.802 2.396-28.286s5.737-5.017 12.081-4.638c6.495.389 10.666 2.673 12.505 6.885s2.807 14.043 2.903 29.513l.758 120.71m94.667-83.912c-.058-25.994-.97-44.41-2.731-55.257-1.766-10.85-7.236-20.826-16.421-30.04s-21.595-16.511-37.215-22.049-33.812-8.983-54.544-10.46c-19.673-1.4-37.309-.608-52.904 2.628s-28.092 9.029-37.5 17.585c-9.408 8.545-14.952 18.392-16.647 29.485-1.695 11.087-2.4 30.746-2.118 58.94l.469 46.851c.276 27.511 1.333 47.028 3.172 58.502s7.337 22.035 16.497 31.536c9.155 9.507 21.47 16.751 36.939 21.754s33.454 7.45 53.97 7.449c19.464-.005 36.934-2.3 52.415-6.842s27.927-11.337 37.345-20.377 15.02-18.879 16.795-29.523 2.637-29.288 2.577-55.917l-.099-44.265" fill="#fff"/><path d="M834.6 628.53l-.291-.003c-3.88-.044-6.689-1.048-8.585-3.067-.492-.522-2.926-4.011-3.059-22.012l-.911-123.62c-.147-19.981 1.346-25.209 1.994-26.529.928-1.894 3.782-2.733 8.34-2.459 7.362.442 8.71 3.531 9.152 4.546 1.112 2.544 2.461 9.462 2.577 27.969l.758 120.71c.094 15.063-1.329 19.94-2.185 21.509-.398.725-1.618 2.95-7.79 2.95m-4.097-185.56c-8.597 0-12.237 3.745-13.776 6.886-1.274 2.594-2.954 8.535-2.795 30.039l.911 123.62c.143 19.489 2.846 24.837 5.185 27.321 3.379 3.598 8.155 5.46 14.192 5.53l.38.002c7.167 0 12.096-2.36 14.649-7.017 1.405-2.571 3.257-7.986 3.148-25.32l-.758-120.71c-.135-21.513-1.909-28.027-3.231-31.055-2.46-5.638-7.794-8.743-15.853-9.226-.705-.042-1.394-.063-2.052-.063m3.617 230.18c-20.139 0-37.889-2.442-52.767-7.26-14.791-4.783-26.676-11.762-35.327-20.746-8.545-8.862-13.743-18.766-15.45-29.436-1.8-11.227-2.85-30.715-3.123-57.923l-.469-46.851c-.279-27.867.418-47.484 2.072-58.309 1.553-10.156 6.737-19.301 15.409-27.178 8.871-8.065 20.537-13.512 35.667-16.65 10.262-2.129 21.768-3.21 34.199-3.21 5.614 0 11.547.221 17.634.653 20.436 1.457 38.441 4.904 53.515 10.246 15.081 5.347 27.11 12.454 35.751 21.123 8.677 8.703 13.691 17.83 15.33 27.906 1.722 10.599 2.623 28.982 2.681 54.635l.099 44.266c.059 26.279-.79 44.873-2.523 55.263-1.625 9.735-6.888 18.934-15.646 27.342-8.917 8.561-20.941 15.103-35.738 19.446-15.101 4.43-32.366 6.678-51.314 6.683m-19.789-275.39c-12.963 0-25.004 1.135-35.787 3.374-16.307 3.382-29.542 9.612-39.337 18.519-10.035 9.115-16.052 19.812-17.883 31.791-1.718 11.241-2.445 31.285-2.162 59.571l.469 46.851c.277 27.597 1.361 47.476 3.221 59.084 1.965 12.28 7.868 23.597 17.544 33.634 9.553 9.919 22.523 17.577 38.551 22.76 15.656 5.068 34.216 7.639 55.164 7.639 19.704-.005 37.708-2.359 53.524-7 16.013-4.7 29.119-11.869 38.952-21.308 10-9.602 16.038-20.269 17.946-31.704 1.805-10.821 2.69-29.854 2.63-56.571l-.099-44.263c-.058-26.069-.994-44.867-2.782-55.877-1.886-11.587-7.778-22.412-17.513-32.178-9.474-9.503-22.487-17.232-38.678-22.974-15.737-5.577-34.433-9.169-55.571-10.674-6.271-.448-12.39-.674-18.189-.674" fill="#0f0"/><path d="M1196.6 573.05l-94.934 2.52-.116 23.68c-.073 14.925-1.02 24.279-2.839 28.055s-6.103 5.685-12.854 5.73c-5.852.039-9.821-1.542-11.909-4.734s-3.111-11.417-3.063-24.668l.448-124.57c.042-11.651 1.125-19.35 3.259-23.1s6.372-5.73 12.724-5.956c6.954-.25 11.673 1.647 14.145 5.738s3.679 12.204 3.618 24.348l-.156 30.946-19.228.545-.167 39.52 111.28-3.482 1.204-143.46-60.016 4.62-8.952 19.335c-6.46-7.738-14.645-13.337-24.549-16.879s-21.61-5.025-35.108-4.559c-16.08.556-31.146 3.649-45.182 9.322s-24.689 12.474-31.965 20.558c-7.275 8.074-11.813 16.531-13.622 25.404-1.811 8.866-2.707 22.184-2.693 39.945l.057 76.728c.019 24.67 1.909 42.594 5.667 53.763s14.521 21.401 32.267 30.697 40.676 13.954 68.828 13.961c27.701.001 50.705-4.07 69.041-12.382s30.328-18.3 35.97-29.849 8.559-28.318 8.743-50.219z" fill="#fff"/><path d="M1140.6 412.54l53.496-4.095-1.136 135.43-103.48 3.24.133-31.712 15.455-.446 3.771-.117.175-34.722c.065-13-1.304-21.634-4.184-26.395-3.066-5.074-8.55-7.648-16.299-7.648a37.69 37.69 0 0 0-1.332.025c-7.777.276-13.156 2.946-15.985 7.936-2.524 4.436-3.722 12.388-3.768 25.019l-.449 124.56c-.068 18.659 1.943 24.139 3.703 26.827 2.821 4.317 7.857 6.506 14.965 6.506l.242-.001c8.333-.056 13.835-2.727 16.35-7.943 1.337-2.777 3.125-8.877 3.228-29.738l.097-19.857 87.096-2.31-.062 7.472c-.178 21.233-2.987 37.563-8.346 48.533-5.228 10.699-16.691 20.12-34.07 28.002-17.618 7.986-40.302 12.034-67.427 12.034-27.356-.007-49.904-4.554-67.016-13.515-16.751-8.776-26.97-18.357-30.372-28.478-3.607-10.719-5.446-28.388-5.464-52.516l-.057-76.729c-.013-17.426.867-30.599 2.614-39.157 1.657-8.127 5.928-16.056 12.694-23.566 6.776-7.529 17.046-14.105 30.526-19.549 13.505-5.46 28.259-8.501 43.853-9.04 13.035-.456 24.354 1.006 33.657 4.332 9.228 3.301 16.92 8.584 22.864 15.703l3.952 4.734 2.596-5.594 7.977-17.228m61.39-12.665l-4.298.389-59.912 4.611-2.326.148-.976 2.117-6.498 14.042c-6.152-5.995-13.575-10.568-22.137-13.63-10.243-3.662-22.519-5.267-36.559-4.784-16.509.57-32.158 3.801-46.511 9.603-14.796 5.977-25.725 13.031-33.408 21.568-7.713 8.562-12.608 17.728-14.548 27.243-1.879 9.2-2.785 22.523-2.772 40.73l.057 76.728c.02 25.329 1.94 43.323 5.872 55.008 4.067 12.099 15.561 23.174 34.16 32.917 18.242 9.553 42.01 14.401 70.642 14.408 28.244.001 52.015-4.284 70.654-12.731 19.081-8.654 31.822-19.317 37.87-31.694 5.877-12.032 8.952-29.496 9.141-51.908l.131-15.644-4.08.142-94.871 2.517-3.82.071-.136 27.504c-.091 18.711-1.575 24.555-2.451 26.374-1.108 2.299-4.257 3.482-9.357 3.516h-.189c-4.302 0-7.135-.997-8.422-2.964-.749-1.145-2.485-5.631-2.423-22.51l.448-124.56c.052-14.317 1.742-19.413 2.746-21.177.524-.924 2.109-3.719 9.464-3.98.358-.014.709-.021 1.053-.021 7.267 0 9.029 2.914 9.607 3.872 1.434 2.369 3.124 8.159 3.054 22.301l-.137 27.168-15.437.43-3.795.097-.2 47.33 4.005-.08 111.38-3.483 3.711-.159z" fill="#0f0"/><path d="M1450.5 558.78l-94.539 6.603-.289 26.057c-.182 16.427-1.195 26.744-3.038 30.926s-6.136 6.358-12.878 6.53c-5.842.149-9.795-1.506-11.853-4.939s-3.01-12.359-2.853-26.771l1.481-135.5c.139-12.674 1.279-21.136 3.428-25.418s6.375-6.832 12.681-7.667c6.903-.919 11.569.73 13.993 5.007 2.425 4.271 3.563 13.109 3.414 26.488l-.377 34.089-19.123 1.894-.477 43.226 110.73-9.432 1.677-163.15-59.324 11.352-8.981 22.412c-6.348-7.96-14.415-13.305-24.198-16.145s-21.371-3.165-34.763-1.155a135.73 135.73 0 0 0-44.941 15.041c-14.007 7.603-24.676 15.942-32.002 25.208s-11.936 18.573-13.831 28.041-2.931 23.49-3.105 42.096l-.75 80.383c-.241 25.841 1.458 44.556 5.097 56.215 3.636 11.652 14.289 22.253 31.938 32.041 17.65 9.776 40.538 14.841 68.692 14.852 27.7.007 50.735-4.465 69.106-13.875 18.367-9.4 30.388-20.834 36.061-34.02 5.672-13.174 8.635-32.329 8.891-57.241l.136-13.143" fill="#fff"/><path d="M1396 381.54l52.536-10.022-1.591 154.79-102.89 8.771.391-35.448 15.647-1.557 3.476-.354.416-37.587c.161-14.422-1.086-23.467-3.924-28.466-1.87-3.299-5.801-7.234-13.909-7.234-1.256 0-2.602.094-4.002.281-7.638 1.012-12.908 4.307-15.659 9.792-2.439 4.86-3.697 13.734-3.843 27.131l-1.482 135.5c-.22 20.148 1.708 25.99 3.412 28.829 2.828 4.719 7.952 7.037 15.306 6.837 8.357-.212 13.861-3.195 16.356-8.866 1.326-3.005 3.118-9.642 3.37-32.46l.248-22.419 86.714-6.05-.091 8.867c-.25 24.35-3.134 43.102-8.573 55.733-5.329 12.385-16.852 23.18-34.25 32.084-17.663 9.048-39.664 13.446-67.26 13.446-27.202-.011-49.676-4.844-66.863-14.364-16.695-9.259-26.822-19.28-30.098-29.782-3.5-11.216-5.155-29.724-4.919-55.012l.751-80.381c.17-18.268 1.188-32.185 3.026-41.364 1.756-8.764 6.15-17.64 13.063-26.381 6.97-8.815 17.045-16.73 30.8-24.195a132.39 132.39 0 0 1 43.657-14.611c5.49-.824 10.695-1.242 15.471-1.242 6.475 0 12.404.768 17.622 2.284 9.113 2.646 16.385 7.496 22.233 14.827l4.177 5.239 2.505-6.216 8.181-20.403m60.458-19.635l-4.746.973-59.222 11.334-2.142.381-.807 2.023-6.641 16.595c-6.063-5.947-13.377-10.188-21.817-12.638-5.925-1.721-12.588-2.595-19.801-2.595-5.164 0-10.759.448-16.63 1.329a140.17 140.17 0 0 0-46.226 15.471c-14.703 7.981-25.566 16.558-33.204 26.22-7.688 9.719-12.599 19.712-14.6 29.701-1.934 9.66-3.005 24.07-3.18 42.829l-.751 80.382c-.246 26.473 1.479 45.254 5.276 57.419 3.95 12.665 14.998 23.885 33.775 34.298 18.361 10.17 42.108 15.332 70.586 15.344 28.931 0 52.097-4.679 70.889-14.305 19.06-9.756 31.804-21.855 37.871-35.957 5.85-13.589 8.949-33.356 9.211-58.75l.179-17.418-4.259.333-94.475 6.597-3.631.224-.329 29.698c-.23 20.752-1.794 27.321-2.705 29.388-.437.992-1.762 4.003-9.398 4.197-.208.006-.413.008-.616.008-5.958 0-7.333-2.294-7.784-3.048-.76-1.263-2.499-6.197-2.297-24.713l1.482-135.5c.163-14.956 1.727-21.144 3.012-23.701 1.54-3.072 4.711-4.884 9.698-5.544 1.06-.142 2.059-.214 2.972-.214 4.709 0 6.311 1.867 7.107 3.27 1.423 2.506 3.08 8.79 2.904 24.512l-.338 30.591-15.626 1.54-3.498.336-.561 51.001 4.243-.312 110.82-9.438 3.497-.34z" fill="#0f0"/><path d="M1687.4 669.41l-68.019-219.11.515-124.53a2288.75 2288.75 0 0 1-86.402 22.803l-.939 116.45c-22.572 71.87-45.317 140.19-68.128 205.59l86.854-.412c14.033-63.883 21.914-108.53 23.786-131.1 4.988 34.925 13.457 77.994 25.501 130.83l86.832-.521" fill="#fff"/><path d="M1537.4 351.65c26.213-6.41 52.608-13.363 78.583-20.699l-.495 119.96.194.598 66.501 214.02-78.478.469c-11.874-52.32-19.973-94.035-24.746-127.45l-4.902-34.318-2.867 34.548c-1.917 23.082-10.088 68.294-23.039 127.52l-78.189.373 66.343-200.47.176-.559zm86.448-31.075l-5.004 1.426a2295.96 2295.96 0 0 1-86.254 22.763l-2.963.721-.958 118.92a6949.8 6949.8 0 0 1-67.915 204.91l-1.824 5.229 5.533-.023 86.857-.412 3.128-.017.673-3.057c9.393-42.767 16.367-78.51 20.38-104.27 4.997 29.112 12.02 63.442 21.274 104.04l.698 3.062 3.137-.018 86.835-.52 5.21-.033-1.487-4.998-67.854-218.61z" fill="#0f0"/></g><path d="M312.28 483.21V326.72l61.464 18.02.753 138.47z" fill="url(#C)"/><g clip-path="url(#D)"><path d="M327.92 467.55h30.843l-.603-110.92-30.24-8.801z" fill="#fff"/></g><path d="M616.4 483.21l.029-6.952-.862-78.064 56.75 8.657.633 59.816-.011 16.543z" fill="url(#E)"/><g clip-path="url(#F)"><path d="M631.98 467.55h25.334l-.498-47.094-25.398-3.846z" fill="#fff"/></g><path d="M493.6 483.21l-.971-108.78 62.833 13.013 1.039 95.769z" fill="url(#G)"/><g clip-path="url(#H)"><path d="M509.11 467.55h31.58l-.729-67.186-31.509-6.477z" fill="#fff"/></g><path d="M863.37 483.21c-.148-23.261-2.212-31.08-4.211-35.657-2.459-5.635-9.095-15.241-25.91-16.25-.935-.056-1.859-.084-2.748-.084-15.415.001-21.849 8.433-24.303 13.444-2.52 5.129-4.165 13.097-4.001 35.312l.023 3.235h-63.413c.267-12.869.883-22.519 1.846-28.817 1.15-7.526 4.976-14.152 11.701-20.262 7.274-6.613 17.138-11.14 30.158-13.841 9.481-1.968 20.185-2.966 31.817-2.966 5.338 0 10.991.211 16.8.624 19.385 1.381 36.353 4.612 50.431 9.602 13.417 4.756 23.969 10.93 31.365 18.35 6.879 6.9 10.822 13.932 12.052 21.49.654 4.023 1.181 9.308 1.583 15.82z" fill="url(#I)"/><g clip-path="url(#J)"><path d="M873.53 441.35c2.403 5.525 4.217 12.543 5.029 26.194h30.408c-1.116-3.438-3.461-6.926-7.112-10.588-5.733-5.752-14.317-10.68-25.514-14.65l-2.811-.956m-79.381-7.146c-2.936.382-5.758.854-8.457 1.415-10.207 2.117-17.669 5.42-22.815 10.099-5.276 4.793-6.382 8.595-6.756 11.038-.33 2.158-.716 5.549-1.047 10.788h31.599c.443-14.426 2.073-22.842 5.491-29.798a37.69 37.69 0 0 1 1.985-3.542" fill="#fff"/></g><path d="M1120.7 483.21l.016-3.036c.078-15.65-1.736-25.685-5.878-32.533-3.005-4.971-10.423-13.313-26.339-13.313a46.8 46.8 0 0 0-1.746.032c-15.104.536-22.354 7.842-25.763 13.855-3.667 6.444-5.254 15.654-5.309 30.795l-.016 4.2h-63.684c.386-7.535 1.04-13.601 1.961-18.114 1.251-6.129 4.492-12.032 9.918-18.054 5.57-6.189 14.384-11.746 26.2-16.52 12.231-4.944 25.644-7.7 39.864-8.192a123.09 123.09 0 0 1 4.212-.073c9.73 0 18.172 1.254 25.091 3.728 7.335 2.623 13.161 6.606 17.809 12.175l15.809 18.936 10.384-22.381 5.059-10.917 33.933-2.552-.521 61.964z" fill="url(#K)"/><g clip-path="url(#L)"><path d="M1046.9 441.39c-3.77 1.003-7.428 2.221-10.964 3.649-11.953 4.829-17.71 9.453-20.436 12.482-3.268 3.627-5.253 6.912-6.055 10.025h30.998c.798-11.238 2.85-19.427 6.457-26.156m119.55-3.193l-7.839.577-13.351 28.772h20.944z" fill="#fff"/></g><path d="M1375.5 483.21l.254-22.947c.187-16.814-1.495-27.422-5.45-34.387-2.791-4.926-9.634-13.189-24.116-13.189-1.772 0-3.64.13-5.537.383-14.611 1.935-21.448 9.86-24.606 16.159-3.352 6.676-4.923 16.632-5.094 32.279l-.237 21.702h-63.468c.387-12.369 1.254-21.99 2.591-28.662 1.406-7.025 4.925-14.024 10.758-21.4 5.883-7.44 15.031-14.558 27.193-21.16 12.418-6.741 25.808-11.222 39.804-13.32 4.915-.738 9.535-1.113 13.73-1.113 5.368 0 10.197.613 14.354 1.82 6.705 1.947 12.046 5.505 16.33 10.876l16.712 20.953 10.022-24.865 5.781-14.392 32.173-6.08-1 97.343z" fill="url(#M)"/><g clip-path="url(#N)"><path d="M1301.9 422.41l-6.713 3.342c-10.145 5.508-17.886 11.425-22.383 17.112-4.263 5.392-6.778 10.219-7.687 14.759-.423 2.111-.915 5.281-1.352 9.925h31.415l.069-6.213c.2-18.253 2.19-29.919 6.651-38.925m113.87-16.619l-2.578 6.407-20.044 49.73-1.799-2.256-.086 7.876h28.891l.645-62.696-5.029.939" fill="#fff"/></g><path d="M1543.2 483.21l4.263-13.492.702-2.231.858-106.61 55.126-14.44-.438 106.32.777 2.391 9.056 28.065z" fill="url(#O)"/><g clip-path="url(#P)"><path d="M1588.4 366.91l-23.85 6.201-.76 94.441h28.253l-4.006-12.347z" fill="#fff"/><g fill="#8dcb2a"><path d="M831.68 1615.2c9.358 16.156 24.844 24.253 43.042 25.211 5.733.302 14.307-3.446 16.923-8.014 2.574-4.492 1.205-13.603-1.869-18.546-12.962-19.909-31.398-25.981-44.05-24.918-8.595.723-12.66 3.955-15.567 8.242-2.258 4.835-1.308 13.141 1.521 18.025m90.863 33.907c11.508 22.744 44.453 41.126 69.73 38.904 19.19-1.686 29.2-18.074 20.439-35.121-13.796-26.842-32.887-40.03-61.812-42.746-30.528-1.643-39.099 17.731-28.357 38.963m105.24-37.4c15.823 18.143 35.836 26.815 60.02 24.681 19.602-1.73 28.021-19.256 16.786-35.421-13.881-19.971-32.085-29.674-55.71-30.739-13.242.456-21.894 3.134-26.914 13.216-5.293 10.629-1.264 20.142 5.818 28.263m-36.969-61.217c-7.526-20.177-23.635-32.402-41.455-42.226-15.343-8.457-31.867-14.472-49.972-11.778-22.885 3.405-32.159 20.527-23.182 42.105 11.86 28.507 47.419 50.986 80.642 51.395 4.712-.67 9.512-.974 14.122-2.075 18.77-4.481 26.624-19.251 19.845-37.421m-352.33-223.89c6.943-4.932 13.934-9.871 21.298-14.121 24.229-13.985 49.551-26.282 72.785-41.739 46.782-31.123 97.954-52.402 150.33-71.377 36.891-13.364 75.346-15.132 114.06-15.155 31.552-.018 63.22 1.461 93.137 11.406 40.746 13.545 81.221 28.358 118.82 49.683l62.812 36.502c24.103 14.187 48.542 27.874 71.994 43.077 15.068 9.769 28.887 20.483 47.757 7.185.799.854-.33 43.759-25.043 77.972-.648-.906-1.215-1.4-1.399-2.009-.789-2.611-1.356-5.292-2.201-7.883-7.481-22.964-17.133-44.771-35.118-61.668-36.193-34.003-90.702-26.617-114.45 16.212-6.299 11.361-8.894 24.778-13.301 37.573-29.493 4.255-46.942 28.033-36.008 52.601l2.619-9.742c2.989-12.757 12.602-21.433 24.863-22.369 9.358-.715 17.543 5.564 22.069 18.093 3.82 10.575 6.079 21.74 10.223 32.168 9.167 23.064 17.681 46.569 29.192 68.455 7.686 14.615 19.774 27.112 36.841 32.468 7.837 2.46 15 2.274 19.737-3.825l-21.156-10.76c38.41-10.131 46.067-15.868 71.419-53.952 1.742 10.168 3.897 20.637 2.54 30.628-5.065 37.305-27.994 62.477-59.687 79.44-15.056 8.059-33.035 8.925-48.263-.75-14.248-9.051-28.138-19.414-39.893-31.445-12.885-13.188-23.145-28.947-35.107-44.301-.193 2.919 7.604 54.285 48.813 88.292-10.927 9.829-20.319 19.791-31.174 27.756-31.275 22.949-65.19 41.462-101.68 54.586-47.108 16.941-95.067 26.758-145.65 16.835-53.121-10.42-101.53-31.507-146.69-60.744-16.874-10.926-33.605-22.158-44.738-39.419 27.037-26.291 49.039-79.972 44.957-87.067-17.268 28.593-36.853 55.065-66.499 72.16-24.186 13.948-47.087 12.016-69.624-4.691-16.02-11.876-28.278-26.803-37.312-44.285-9.449-18.288-11.204-37.491-3.761-59.053 14.077 31.311 35.938 50.316 69.785 53.287.227.95-13.672 9.81-21.119 13.421 4.316 5.017 25.591 5.972 42.211-10.969 11.311-13.831 22.247-28.816 29.309-45.076 9.871-22.732 15.888-47.125 23.879-70.698 4.793-14.139 12.58-20.889 22.464-20.553 12.681.43 22.412 9.475 25.71 23.748.545 2.357 1.559 4.605 2.805 8.2 9.277-26.515-6.171-47.229-37.961-52.859l-2.338-11.766c-3.601-17.129-10.697-32.513-23.74-44.473-30.958-28.386-80.089-23.288-108.17 11.384-14.813 18.293-23.916 39.572-30.114 64.668-30.951-54.08-26.397-78.941-25.541-79.717 17.272 12.863 31.353 4.582 45.31-5.334M1403.4 923.48c-1.006 2.102-1.148 4.604-1.804 6.887-2.494 8.691-3.549 18.187-7.8 25.918-25.473 46.302-54.933 90.415-74.476 139.96-4.024 10.203-11.208 19.649-18.662 27.877-7.867 13.559-37.299 22.215-50.606 14.482-10.422-7.137-19.929-13.304-28.827-20.233-1.776-1.383-2.157-6.52-1.169-9.174 5.23-14.047 11.506-27.704 16.673-41.772 14.03-38.202 17.965-78.359 21.787-118.46.908-9.528.257-19.206.159-28.831l-.937-4.194c25.827 28.591 54.591 38.323 74.832 29.06.05-.683-48.398-7.567-81.579-78.965 44.471-10.367 74.202-35.178 84.946-82.268 20.865 14.049 40.131 27.95 54.227 47.688 20.215 28.308 29.349 58.365 13.236 92.019M765 1110.2c.998 2.108.029 6.925-1.717 8.264-9.338 7.153-29.075 27.453-44.488 23.013-18.426-2.051-31.855-10.763-41.064-24.416-8.53-12.646-14.945-26.759-21.888-40.431-10.496-20.67-19.979-41.881-31.094-62.203-15.877-29.027-39.879-54.053-42.93-89.271-.11-1.268-1.359-2.397-1.713-3.691-2.226-8.134-5.401-16.177-6.333-24.467-5.425-48.306 36.784-91.163 74.973-111.95 10.372 45.522 40.147 70.747 85.871 81.175-28.971 57.663-67.016 77.929-82.709 77.391 3.655 12.112 32.165 9.167 74.299-24.341-.267 1.618.001 1.876-.082 2.604-.704 65.564 10.6 128.64 38.875 188.32"/></g><path d="M695.2 1479.4c4.783 5.879 10.632 10.368 18.54 7.068 8.269-3.45 8.109-11.016 6.896-18.381l-9.802-57.375c-.713-3.991-4.176-22.451-14.256-20.865-4.75.828-10.987 5.419-12.518 9.836-3.05 8.801-3.331 18.565-4.756 27.931-.75 19.303 3.63 36.709 15.896 51.786m-11.04-124.27c19.383-13.005 39.483-12.685 56.783 1.697 12.549 10.433 21.856 23.346 26.446 36.456-7.888 10.795-15.734 18.745-20.141 28.287-5.233 11.332-7.435 24.055-11.079 36.136l-17.11 55.72c-.748 2.363-2.53 5.409-4.576 6.189-16.449 6.273-40.596-1.674-52.848-15.99-36.193-42.288-22.38-118.37 22.525-148.5" fill="#ffcb0d"/><path d="M710.48 1408.9c-1.231-6.058-4.965-20.39-13.898-18.984-4.75.827-10.987 5.418-12.518 9.835-3.05 8.802-3.331 18.565-4.756 27.931l-.017.562c-15.524 15.892-27.809 34.958-29.372 57.193-20.293-43.248-4.754-104.07 34.246-130.24 19.382-13.004 39.482-12.685 56.782 1.698 12.549 10.432 21.856 23.346 26.446 36.456-.768 1.052-29.84-.768-56.913 15.544" fill="#ff8a0d"/><path d="M1138.9 1184.9c-99.04-45.184-197.81-44.095-296.32 1.172-.451-1.394 41.683-37.699 94.675-51.797-16.705 1.943-32.305 2.115-46.96 5.927-14.613 3.802-28.279 11.252-42.361 17.103 79.312-78.493 221.55-70.24 288.9-.595-14.281-5.128-27.855-12.586-42.384-16.372-14.783-3.851-30.507-4.086-47.668-6.126 55.035 12.944 92.556 49.105 92.116 50.688" fill="#fff"/><path d="M1046.8 1134.2c55.035 12.943 92.557 49.105 92.116 50.688-44.597-20.347-89.141-31.306-133.63-33.078 11.472-8.077 2.357-18.962-34.713-18.049 18.839-6.996 16.104-27.678.269-31.323 62.6-5.898 126.92 13.837 166.01 54.259-14.281-5.128-27.855-12.585-42.384-16.371-14.783-3.852-30.507-4.087-47.668-6.126" fill="#a6a5c2"/><path d="M1301.6 1403.4c-1.554-5.488-3.461-14.173-12.729-14.173-7.747 0-11.204 8.004-12.321 13.01-5.26 23.552-9.309 47.405-12.762 71.3-.563 3.895 3.088 10.839 6.489 12.236 3.994 1.641 11.267.44 14.638-2.439 14.709-12.56 19.11-29.982 20.17-49.559-.929-9.541-.66-20.397-3.485-30.375m-26.562 116.7c-4.947-1.133-8.224-1.832-9.659-6.552l-17.277-57.733c-6.13-21.98-9.568-45.221-34.032-60.75 8.511-11.728 15.395-23.596 24.549-33.325 19.14-20.344 43.195-21.408 65.106-3.872 34.107 27.298 44.394 64.21 37.966 105.44-4.781 30.666-28.309 65.577-66.653 56.793" fill="#ffcb0d"/><path d="M1304.1 1418.9c-.401-5.219-1.037-10.497-2.468-15.55-1.553-5.488-3.461-14.173-12.729-14.173-7.746 0-11.203 8.004-12.321 13.01l-.472 2.178c-.938-.403-1.882-.797-2.854-1.162-18.278-7.417-37.761-7.197-57.142-6.855-.657-.449-1.324-.894-2.012-1.331 8.512-11.727 15.395-23.596 24.549-33.325 19.14-20.344 43.195-21.408 65.106-3.872 33.176 26.552 43.812 62.201 38.453 102.07-8.71-16.908-21.866-30.847-38.11-40.99" fill="#ff8a0d"/><path d="M620.87 1229.6c17.421-23.186 43.914-32.82 68.397-45.416.806-.415 1.916-.238 3.031-.352-1.129 2.175-5.218 7.768-7.465 12.096 6.197-2.779 13.4-7.83 17.034-10.013 9.046-5.433 17.973-11.08 26.765-16.916l35.479-24.137c20.558-14.035 40.384-29.337 61.866-41.772 22.332-12.928 46.11-23.414 69.534-34.374 26.26-12.288 54.615-17.735 83.046-20.388 38.055-3.55 74.827 5.423 109.56 20.318 27.464 11.78 54.695 24.9 80.053 40.618 39.349 24.389 76.985 51.543 115.46 77.36 3.144 2.11 11.124 7.424 16.962 9.761-2.179-4.173-7.1-10.402-9.166-14.358 12.064 6.232 21.775 11.869 31.98 16.391 21.736 9.63 37.86 25.241 50.173 45.203 9.544 15.473 18.35 31.258 20.545 49.779 1.579 13.335-8.091 22.244-20.082 17.151-12.143-5.159-23.52-12.169-35.095-18.616-31.486-17.536-60.123-39.055-86.209-63.822-26.192-24.87-50.94-51.313-77.783-75.436-23.25-20.894-46.884-41.369-75.543-55.649-29.038-14.468-58.641-23.471-91.141-22.549-10.574.301-21.182.439-31.744-.027-45.109-1.994-85.184 13.789-119.85 40.09-32.98 25.026-62.674 54.491-93.067 82.806-29.224 27.227-56.678 56.491-90.938 77.705-19.673 12.182-39.298 24.684-60.025 34.834-14.468 7.084-24.822-3.074-21.814-19.281 4.297-23.143 16.201-42.585 30.042-61.006" fill="#ffe5c0"/><path d="M1374 1310.5c-12.143-5.158-23.52-12.169-35.095-18.615-31.486-17.536-60.123-39.055-86.209-63.823-26.192-24.87-50.939-51.312-77.783-75.436-23.25-20.894-46.884-41.369-75.543-55.648-29.038-14.469-58.641-23.472-91.141-22.549-10.574.3-21.181.439-31.743-.028-13.165-.582-25.897.36-38.194 2.626-12.542-1.827-63.403 3.355-70.791 4.664l27.977-13.026c26.261-12.288 54.615-17.735 83.046-20.388 38.055-3.55 74.828 5.423 109.56 20.319 27.464 11.779 54.695 24.899 80.054 40.617 39.348 24.39 76.984 51.543 115.46 77.36 3.143 2.11 11.124 7.425 16.962 9.761-2.18-4.173-7.101-10.401-9.166-14.357 12.063 6.231 21.774 11.869 31.979 16.39 21.737 9.631 37.861 25.241 50.173 45.203 9.544 15.473 18.351 31.259 20.545 49.78 1.579 13.334-8.091 22.243-20.082 17.15" fill="#ceb495"/><path d="M1156 1588.8c0-64.253-83.277-151-166.51-151s-171.98 77.274-171.98 141.53 80.321 110.92 163.47 114.62c122.76 5.475 175.02-40.897 175.02-105.15" fill="#aad85f"/><path d="M1127.1 1606.8c0-53.291-69.069-125.24-138.1-125.24s-142.64 64.091-142.64 117.38 66.617 91.992 135.58 95.068c101.81 4.541 145.16-33.919 145.16-87.21" fill="#ccf975"/><g fill="#407200"><path d="M847.83 1598.2c14.471.691 25.929 7.444 34.043 19.374 1.471 2.161 2.825 7.255 1.719 9.246-1.126 2.027-4.672 2.471-7.298 2.347-15.112-1.936-26.23-8.589-34.829-19.339-1.711-2.138-3.299-5.896-2.367-8.071 1.331-3.111 5.765-3.699 8.732-3.557m94.78 22.8c25.062-.83 47.542 12.722 60.244 34.584 7.343 12.641 2.377 21.178-12.102 20.675-24.383-.846-43.872-11.957-57.445-32.198-2.837-4.23-4.595-11.735-2.724-15.85 1.81-3.977 6.502-6.317 12.027-7.211m21.47-41.8a42.69 42.69 0 0 1-12.189-.884c-20.052-4.466-38.367-12.971-52.914-27.523-6.493-6.495-11.777-15.077-15.05-23.687-3.617-9.51 2.014-17.356 11.95-19.994 4.578-1.217 6.872-2.058 13.519-2.462 17.864-1.015 56.575 15.201 72.108 42.966 9.268 16.564 1.42 30.225-17.424 31.584m81.12 2.3c17.895-.67 36.071 8.658 46.214 23.851 6.974 10.445 1.513 20.73-11.018 20.218-17.658-.721-33.45-6.976-43.744-22.279-2.695-4.008-4.923-11.209-3.084-14.65 2.179-4.077 6.332-6.289 11.632-7.14"/></g><path d="M1172.9 856.62c15.841.83 29.724 5.518 42.777 14.813 18.66 13.285 27.366 29.02 25.959 53.311-2.412 41.642-11.215 81.828-21.215 121.9-4.608 18.465-11.433 36.375-17.69 55.901l-11.628-9.72c-6.154-4.845-11.923-10.455-18.714-14.167-25.093-13.716-49.984-28.015-76-39.77-28.869-13.044-58.648-23.789-91.221-24.621-28.271-.723-56.137.651-82.568 11.183-24.977 9.953-50.41 19.52-73.732 32.655-22.381 12.605-46.576 23.125-64.891 42.262-.385.401-1.265.327-2.36.576-.652-1.413-1.542-2.833-1.987-4.381-8.295-28.853-17.521-57.484-24.54-86.648-8.405-34.926-13.703-70.438-11.29-106.63.2-2.989-.041-6.821 1.644-8.77 14.869-17.194 30.481-33.993 54.813-36.472 23.41-2.386 46.944-3.623 70.442-5.041 30.108-1.818 59.048-8.118 79.006-32.425 10.886-13.259 17.246-30.242 26.293-46.722h35.857c.528 1.357 1.038 2.275 1.247 3.256 9.796 46.198 40.798 68.553 85.298 74.147 24.671 3.101 49.636 4.057 74.5 5.361" fill="#ffe5c0"/><path d="M1605.5 1149.6c-15.98 30.132-37.21 56.344-60.837 80.669-2.495 2.569-7.215 4.479-10.752 4.26-12.869-.796-25.642-3.19-38.513-3.933-17.824-1.028-32.958-7.564-46.085-19.453-4.591-4.157-9.601-7.851-14.42-11.756 3.417 36.668 27.939 59.905 50.479 87.121l-53.54 33.382c-3.035-84.77-36.412-143.77-124.24-164.13 30.982-18.296 41.592-46.863 51.869-76.245 7.065-20.2 16.128-39.855 25.988-58.876 10.356-19.975 23.04-38.728 34.02-58.397 3.219-5.766 6.33-7.302 12.733-6.494 40.341 5.094 74.594 23.355 105.27 48.864 23.013 19.138 42.258 41.44 54.731 69.274 3.757 8.384 1.453 12.483-5.293 16.252l-87.539 48.839c-8.893 4.938-17.951 9.58-29.295 15.613 58.391-5.645 114.18-7.364 136.5-7.895-.152.423-.458 1.746-1.073 2.906" fill="#407200"/><path d="M1310.7 733.86c1.118 16.245 1.051 32.908-1.263 48.987-5.432 37.763-51.522 77.604-97.964 52.928-4.1-2.179-9.054-3.438-13.709-3.769l-92.939-5.976c-37.088-2.218-62.306-27.523-64.107-64.324-.508-10.39 3.103-18.524 11.393-24.896 14.342-11.024 19.462-9.742 24.379 7.262 4.416 15.273 13.14 27.387 27.186 34.296 23.336 11.479 48.26 17.95 74 22.212 10.962 1.814 45.2 15.371 46.137 13.957-9.063-7.181-17.176-16.459-27.39-21.099-20.089-9.125-41.538-15.197-62.043-23.476-11.252-4.544-23.589-9.038-29.234-21.088-12.956-27.66-15.608-55.798-.154-83.49 2.207-3.956 7.204-7.79 11.59-8.844 20.473-4.923 33.138 5.794 33.017 26.954l-.014 14.357c-.259 14.353 5.989 24.966 18.394 31.944 6.23 3.503 12.485 7.017 18.964 10.014l70.676 32.233c-.605-5.405-.147-9.698-1.621-13.169-11.634-27.379-11.485-55.337-3.48-83.283 2.553-8.911 7.555-17.563 13.217-24.97 3.32-4.343 10.113-8.268 15.411-8.356 9.001-.148 18.153 2.484 27.067 4.659 17.258 4.213 22.92 18.388 13.738 33.824-9.788 16.458-12.565 34.019-11.251 53.113" fill="#f3990d"/><path d="M630.93 1095.8c7.421 22.49 19.251 42.235 39.5 55.831 1.313.882 2.398 2.103 5.003 4.429-86.7 20.079-119.93 79.625-122.81 163.86l-53.962-33.752c36.99-39.008 52.885-66.036 50.899-86.817-4.682 3.717-9.231 6.624-12.913 10.384-10.68 10.904-23.727 17.245-38.426 19.927-12.706 2.32-25.575 3.932-38.441 5.097-8.037.728-16.459 1.263-22.38-6.53l-54.524-71.552c-2.447-3.246-3.744-7.362-5.668-11.267 14.661 1.178 27.891 3.423 41.042 3.028 21.652-.65 93.562 5.873 93.815 4.498-9.28-4.789-18.693-9.337-27.813-14.414l-87.408-48.999c-7.048-3.918-7.8-8.119-4.456-15.616 12.559-28.154 32.041-50.727 55.441-69.966 30.795-25.319 64.982-43.715 105.45-48.319 5.627-.641 8.582.547 11.264 5.668 6.171 11.786 12.364 23.676 19.841 34.64 21 30.797 34.945 64.71 46.547 99.872" fill="#407200"/><path d="M881.05 825.93c-13.968.841-28.131-.102-41.929 1.79-26.339 3.61-54.522-2.156-78.457 14.559-.755.527-1.982.408-2.995.528-43.36 5.158-74.905-22.366-82.529-59.715-2.965-14.523-3.471-30.115-1.878-44.872 2.297-21.286-.459-40.592-11.598-58.968-8.216-13.553-2.018-27.9 13.36-32.01 5.567-1.489 11.392-2.036 17.116-2.902 19.188-2.903 25.87-.642 34.156 16.877 14.368 30.377 14.999 61.873 3.852 93.649-1.771 5.044-2.368 10.501-3.83 17.261l16.886-7.89 73.911-34.949c11.899-5.92 17.854-16.498 17.699-30.13-.077-6.835-.25-13.682.057-20.504.47-10.454 8.232-20.666 16.504-22.264 15.695-3.032 24.086.458 30.303 12.208 8.01 15.137 9.143 31.402 7.541 47.913-2.722 28.07-15.613 47.414-44.615 55.357-19.955 5.467-39.066 14.125-58.375 21.807-11.06 4.401-17.471 13.887-24.345 22.672.523.791 30.925-13.965 43.455-16.119 17.06-2.933 34.271-6.147 50.644-11.575 15.615-5.177 32.583-10.043 42.078-25.313 5.313-8.544 8.124-18.612 12.744-27.644 1.286-2.514 5.175-5.566 7.573-5.331 14.214 1.391 25.919 15.588 25.581 29.968-.854 36.307-26.716 63.417-62.909 65.597" fill="#f3990d"/><path d="M1499.4 1139l87.539-48.839c6.746-3.769 9.05-7.868 5.293-16.252-12.474-27.834-31.718-50.137-54.731-69.275-30.675-25.509-64.928-43.769-105.27-48.863-6.403-.809-9.515.727-12.733 6.493-10.98 19.67-23.664 38.422-34.02 58.398-9.86 19.021-18.923 38.676-25.988 58.876-10.278 29.382-20.887 57.949-51.869 76.244 87.832 20.359 121.21 79.362 124.24 164.13l53.54-33.383c-22.54-27.215-47.063-50.452-50.48-87.121 4.82 3.905 9.829 7.599 14.42 11.757 13.128 11.888 28.262 18.424 46.086 19.453 12.87.742 25.644 3.136 38.513 3.933 3.537.219 8.257-1.691 10.752-4.261 23.627-24.325 44.856-50.536 60.837-80.668.615-1.16.921-2.484 1.073-2.907-22.321.532-78.111 2.25-136.5 7.896l29.295-15.613m-109.21-307.5c-14.096-19.738-33.361-33.639-54.227-47.688-10.744 47.09-40.474 71.901-84.946 82.268 33.182 71.398 81.629 78.282 81.579 78.965-20.241 9.263-44.245 5.917-73.907-27.073 0 10.351.831 20.781-.146 31.038-3.823 40.1-7.757 80.257-21.788 118.46-5.167 14.068-11.443 27.725-16.672 41.772-.989 2.654-.608 7.791 1.169 9.174 9.283 7.23 19.22 13.618 30.179 21.158 4.003 2.043 11.195 1.181 13.593 1.396 15.538-.02 26.783-7.003 35.66-16.803 7.454-8.229 14.639-17.674 18.662-27.877 19.543-49.55 49.003-93.663 74.476-139.96 4.252-7.731 5.306-17.227 7.801-25.918.655-2.284.797-4.785 1.803-6.887 16.114-33.654 6.979-63.711-13.236-92.019m-81.911-184.54c-8.914-2.175-18.066-4.807-27.067-4.659-5.297.088-12.09 4.013-15.411 8.356-5.662 7.407-10.664 16.059-13.216 24.97-8.005 27.946-8.155 55.904 3.479 83.283 1.475 3.471 1.017 7.764 1.621 13.168l-70.676-32.232c-6.479-2.997-12.734-6.511-18.964-10.015-12.405-6.977-18.653-17.59-18.394-31.943.086-4.784-.013-9.571.015-14.357.12-21.161-12.544-31.877-33.018-26.954-4.386 1.054-9.383 4.888-11.59 8.844-15.454 27.692-12.802 55.829.154 83.49 5.645 12.05 17.982 16.543 29.234 21.087 20.505 8.28 41.954 14.352 62.043 23.477 10.215 4.64 18.327 13.918 27.39 21.099-.937 1.414-35.174-12.143-46.137-13.957-25.74-4.262-50.664-10.733-74-22.212-14.046-6.91-22.77-19.023-27.186-34.296-4.917-17.004-10.037-18.286-24.379-7.262-8.29 6.372-11.901 14.506-11.393 24.896 1.802 36.801 27.019 62.106 64.107 64.324l92.94 5.975c4.654.331 9.608 1.591 13.709 3.77 46.441 24.676 92.531-15.165 97.963-52.928 2.314-16.079 2.381-32.742 1.263-48.987-1.314-19.094 1.463-36.655 11.251-53.113 9.182-15.436 3.521-29.611-13.738-33.824m-295.11 130.18c-.209-.981-.718-1.899-1.247-3.256h-35.857c-9.047 16.48-15.406 33.463-26.293 46.722-19.958 24.306-48.898 30.607-79.005 32.425-23.499 1.418-47.033 2.655-70.442 5.041-24.333 2.479-39.945 19.278-54.813 36.471-1.685 1.949-1.445 5.782-1.644 8.771-2.413 36.187 2.884 71.7 11.29 106.63 7.018 29.163 16.244 57.795 24.54 86.648.445 1.548 1.335 2.968 1.987 4.381 1.094-.249 1.975-.175 2.359-.577 18.315-19.136 42.51-29.656 64.891-42.261 23.322-13.135 48.755-22.702 73.732-32.655 26.432-10.532 54.297-11.906 82.568-11.183 32.573.832 62.352 11.577 91.222 24.62 26.015 11.755 50.907 26.055 76 39.771 6.791 3.712 12.559 9.322 18.713 14.167 3.675 2.894 7.187 5.995 11.628 9.72 6.257-19.527 13.082-37.436 17.691-55.901 9.999-40.071 18.802-80.257 21.215-121.9 1.406-24.291-7.3-40.027-25.959-53.312-13.054-9.295-26.937-13.982-42.778-14.812-24.864-1.304-49.829-2.26-74.5-5.362-44.5-5.593-75.502-27.948-85.298-74.146m-94.774-46.743c-2.397-.235-6.287 2.817-7.573 5.331-4.619 9.032-7.431 19.1-12.743 27.644-9.496 15.27-26.463 20.136-42.079 25.313-16.373 5.429-33.584 8.642-50.644 11.575-12.53 2.154-42.932 16.91-43.455 16.119 6.875-8.785 13.285-18.271 24.346-22.672 19.309-7.681 38.419-16.34 58.374-21.806 29.002-7.944 41.894-27.287 44.616-55.358 1.601-16.51.469-32.776-7.541-47.913-6.218-11.75-14.609-15.24-30.303-12.208-8.272 1.598-16.035 11.81-16.505 22.264-.306 6.822-.134 13.669-.056 20.504.154 13.633-5.8 24.211-17.7 30.131-24.395 12.135-49.246 23.355-73.911 34.948l-16.886 7.89c1.463-6.759 2.059-12.216 3.83-17.261 11.147-31.776 10.516-63.272-3.852-93.649-8.286-17.519-14.967-19.78-34.155-16.877-5.724.867-11.55 1.413-17.117 2.902-15.378 4.11-21.575 18.457-13.359 32.01 11.138 18.376 13.895 37.682 11.597 58.968-1.593 14.757-1.087 30.349 1.878 44.872 7.624 37.349 39.17 64.873 82.529 59.715 1.014-.12 2.24-.001 2.995-.528 23.935-16.715 52.118-10.948 78.458-14.559 13.797-1.891 27.961-.949 41.928-1.79 36.194-2.179 62.055-29.29 62.909-65.596.338-14.38-11.366-28.578-25.581-29.969m-269.63 54.654c-38.189 20.788-80.398 63.645-74.973 111.95.932 8.29 4.107 16.333 6.333 24.467.354 1.294 1.603 2.423 1.713 3.69 3.051 35.219 27.053 60.245 42.93 89.272 11.115 20.322 20.598 41.533 31.094 62.203 6.943 13.672 13.358 27.785 21.888 40.431 9.209 13.653 22.638 22.365 41.064 24.416 7.209 0 9.032 0 14.342-1.86 10.932-7.551 20.808-14 30.146-21.153 1.746-1.339 2.715-6.156 1.717-8.264-28.617-60.401-39.859-124.29-38.853-190.7.004-.27-8.226 7.248-32.395 22.773-12.414 8.584-38.189 13.456-41.844 1.344 15.693.538 53.738-19.728 82.709-77.391-45.724-10.428-75.499-35.653-85.871-81.175M553.289 955.7c-40.467 4.604-74.654 23-105.45 48.319-23.4 19.239-42.883 41.812-55.441 69.966-3.344 7.497-2.592 11.698 4.455 15.616l87.409 48.999c9.12 5.077 18.533 9.625 27.813 14.414-.253 1.375-72.164-5.148-93.815-4.498-13.151.395-26.382-1.85-41.042-3.028 1.923 3.905 3.22 8.021 5.668 11.267l54.524 71.552c5.92 7.793 14.342 7.258 22.38 6.53 12.866-1.165 25.735-2.777 38.44-5.097 14.7-2.682 27.746-9.023 38.427-19.927 3.682-3.76 8.231-6.667 12.913-10.384 1.986 20.781-13.91 47.809-50.899 86.817l53.962 33.752c2.878-84.233 36.111-143.78 122.81-163.86-2.605-2.326-3.69-3.547-5.003-4.429-20.249-13.596-32.079-33.341-39.5-55.831-11.602-35.162-25.548-69.075-46.548-99.872-7.477-10.964-13.67-22.854-19.84-34.64-2.682-5.121-5.637-6.309-11.265-5.668m59.369 354.22c20.726-10.149 40.352-22.651 60.024-34.834 34.26-21.214 61.715-50.478 90.939-77.705 30.393-28.315 60.086-57.779 93.066-82.805 34.662-26.302 74.738-42.085 119.85-40.091 10.562.467 21.169.328 31.744.028 32.5-.923 62.102 8.08 91.14 22.549 28.66 14.279 52.293 34.754 75.543 55.649 26.844 24.123 51.591 50.565 77.783 75.436 26.086 24.767 54.723 46.286 86.209 63.822 11.576 6.446 22.953 13.457 35.095 18.615 11.991 5.093 21.661-3.816 20.082-17.15-2.194-18.521-11.001-34.306-20.545-49.78-12.312-19.962-28.436-35.572-50.173-45.203-10.205-4.521-19.916-10.159-31.979-16.39 2.065 3.956 6.986 10.184 9.166 14.357-5.838-2.336-13.818-7.651-16.962-9.761-38.472-25.817-76.107-52.97-115.46-77.36-25.358-15.718-52.59-28.837-80.054-40.617-34.727-14.896-71.5-23.869-109.56-20.319-28.431 2.653-56.785 8.1-83.046 20.388-23.423 10.96-47.201 21.446-69.533 34.374-21.482 12.436-41.308 27.737-61.866 41.773l-35.479 24.136a699.11 699.11 0 0 1-26.765 16.916c-3.635 2.183-10.837 7.234-17.035 10.013 2.248-4.328 6.336-9.92 7.466-12.096-1.116.115-2.225-.062-3.031.352-24.483 12.597-50.976 22.231-68.397 45.416-13.841 18.421-25.746 37.864-30.042 61.006-3.008 16.208 7.346 26.365 21.814 19.281m481.86-169.59c14.529 3.785 28.104 11.243 42.384 16.371-67.355-69.645-209.59-77.898-288.9.595 14.082-5.851 27.748-13.301 42.361-17.103 14.656-3.812 30.256-3.983 46.96-5.927-52.992 14.098-95.126 50.404-94.675 51.797 98.51-45.267 197.28-46.356 296.32-1.172.441-1.582-37.081-37.744-92.116-50.687 17.161 2.039 32.885 2.274 47.668 6.126m209.24 217.53c-21.911-17.536-45.966-16.472-65.106 3.873-9.153 9.729-16.037 21.597-24.549 33.324 24.464 15.53 27.902 38.77 34.032 60.751 5.396 19.346 11.437 38.512 17.278 57.733 1.434 4.719 4.711 5.419 9.659 6.552 38.344 8.784 61.871-26.127 66.652-56.793 6.428-41.229-3.858-78.142-37.966-105.44m-642.1 145.85c12.252 14.316 36.4 22.262 52.848 15.989 2.046-.78 3.828-3.826 4.577-6.189l17.109-55.72c3.644-12.081 5.847-24.804 11.079-36.136 4.407-9.542 12.253-17.492 20.141-28.287-4.59-13.11-13.897-26.023-26.446-36.456-17.299-14.382-37.4-14.701-56.782-1.697-44.906 30.128-58.719 106.21-22.526 148.5m-42.933-92.008c6.198-25.095 15.301-46.375 30.114-64.667 28.078-34.672 77.208-39.771 108.17-11.384 13.043 11.959 20.14 27.344 23.741 44.473l2.338 11.765c31.79 5.631 47.237 26.345 37.96 52.86-1.246-3.595-2.259-5.843-2.804-8.2-3.299-14.273-13.03-23.318-25.711-23.749-9.884-.335-17.671 6.414-22.464 20.554-7.991 23.572-14.007 47.966-23.879 70.697-7.061 16.261-17.998 31.246-29.309 45.077-16.62 16.94-37.895 15.986-42.211 10.969 7.448-3.612 21.347-12.471 21.12-13.422-33.848-2.97-55.709-21.975-69.786-53.286-7.443 21.561-5.688 40.764 3.762 59.053 9.033 17.481 21.291 32.409 37.311 44.284 22.537 16.708 45.438 18.64 69.625 4.692 29.645-17.095 49.23-43.567 66.499-72.161 4.081 7.096-17.921 60.777-44.957 87.068 11.132 17.261 27.864 28.493 44.738 39.419 45.155 29.237 93.568 50.324 146.69 60.744 50.583 9.923 98.542.106 145.65-16.836 36.494-13.123 70.409-31.637 101.68-54.585 10.855-7.965 20.248-17.927 31.174-27.756-41.209-34.007-49.006-85.373-48.813-88.293 11.963 15.355 22.223 31.113 35.107 44.302 11.755 12.031 25.646 22.394 39.893 31.445 15.228 9.675 33.207 8.809 48.264.75 31.692-16.964 54.622-42.135 59.686-79.44 1.357-9.991-.798-20.461-2.54-30.629-25.352 38.084-33.009 43.821-71.419 53.953l21.156 10.759c-4.737 6.1-11.9 6.286-19.737 3.826-17.066-5.356-29.154-17.853-36.841-32.469-11.511-21.885-20.024-45.39-29.191-68.454-4.145-10.428-6.404-21.593-10.224-32.168-4.525-12.53-12.711-18.808-22.069-18.094-12.261.937-21.873 9.612-24.862 22.37-.664 2.828-1.503 5.615-2.62 9.742-10.933-24.569 6.515-48.346 36.008-52.602 4.407-12.795 7.002-26.212 13.301-37.572 23.746-42.83 78.255-50.215 114.45-16.212 17.986 16.897 27.637 38.704 35.118 61.668.845 2.591 1.412 5.271 2.202 7.882.183.61.751 1.103 1.398 2.01 24.713-34.214 25.843-77.118 25.043-77.972-18.87 13.297-32.689 2.583-47.757-7.185-23.452-15.203-47.891-28.89-71.994-43.077l-62.812-36.503c-37.594-21.324-78.07-36.137-118.82-49.682-29.917-9.945-61.585-11.424-93.137-11.406-38.712.022-77.167 1.791-114.06 15.155-52.377 18.974-103.55 40.254-150.33 71.377-23.235 15.457-48.557 27.754-72.786 41.738-7.364 4.251-14.355 9.189-21.298 14.122-13.957 9.916-28.037 18.196-45.309 5.334-.856.775-5.411 25.636 25.54 79.716m1024-271.78c-.892 2.21-1.992 4.352-3.158 6.436-19.772 35.352-44.171 67.243-70.71 97.793-15.984 18.401-35.114 21.894-57.234 18.283-9.306-1.52-18.545-3.447-27.816-5.189-.417.942 18.603 13.82 28.931 18.414 9.647 4.292 11.69 10.027 4.352 17.627-4.467 4.627-9.336 9.375-14.945 12.302l-67.488 34.011c-4.26 2.215-8.343 6.305-10.605 10.547-6.702 12.572-12.353 25.701-18.604 38.521l-18.705 37.485c-5.578 11.321-9.668 23.673-16.893 33.798-6.668 9.343-6.293 16.163.359 24.384 15.527 19.191 19.785 41.275 13.689 64.727-8.388 32.269-26.65 58.046-54.566 76.656-19.852 13.234-41.716 16.316-64.681 11.91-5.742-1.102-9.112-.536-13.146 4.064-36.838 42.013-82.376 71.25-134.44 90.784-48.277 18.114-98.453 22.04-149.32 19.499-88.395-4.415-164.22-37.592-226.06-101.39-8.492-8.761-15.787-17.845-29.661-11.339-.853.4-2.027.105-3.051.152-41.871 1.885-70.236-19.639-91.817-53.002-21.016-32.493-28.903-71.242-.219-106.5 2.804-3.447 1.19-11.173.301-16.7-.536-3.334-3.902-6.12-5.536-9.384l-31.358-63.231-19.86-41.299c-1.415-2.891-2.93-6.636-5.451-7.924-10.597-5.412-21.946-9.396-32.364-15.101-18.147-9.937-36.464-19.814-53.434-31.562-10.337-7.155-7.845-14.221 3.423-19.248 10.031-4.475 28.179-17.399 27.719-18.272-9.344 1.84-18.634 4.035-28.04 5.449-21.699 3.26-41.438.652-56.159-18.397-8.973-11.614-19.898-21.787-28.266-33.783-15.795-22.643-31.056-45.729-45.198-69.433-7.947-13.321-1.782-22.98 13.465-24.585l12.729-1.292-12.05-7.516c-10.799-6.713-12.179-12.683-5.603-23.729l10.744-18.47c9.007-14.809 17.123-30.294 27.408-44.162 20.959-28.259 47.073-51.034 77.599-68.803 21.864-12.727 43.572-25.524 68.48-31.62 8.516-2.084 12.787-6.181 10.938-16.739-2.897-16.536-1.705-33.146 3.815-49.551 13.632-40.51 41.97-68.252 78.947-85.859 23.679-11.275 34.095-56.053 14.553-76.167-4.54-4.673-7.165-12.623-7.854-19.353-1.757-17.161 1.948-33.149 18.056-42.776 20.141-12.039 41.53-18.855 65.222-11.444.948.297 1.773 1.018 2.624 1.587 24.627 16.441 36.284 39.587 33.44 68.968-1.711 17.688-5.688 35.155-8.697 53.021 12.986-7.653 25.778-16.183 39.415-23.024 28.667-14.382 24.443-12.321 21.982-39.358-1.659-18.232 10.865-42.276 25.324-49.504 27.961-13.976 62.934.051 72.883 29.68 4.104 12.222 6.954 24.863 10.565 38.01 18.767.277 36.108 7.49 44.058 25.173 7.041 15.663 18.22 16.629 31.535 16.575 5.107-.022 10.278-1.427 15.3-.945 6.428.617 8.933-2.504 11.257-7.749 7.192-16.225 19.228-27.232 36.656-31.609 4.479-1.125 9.214-1.233 12.287-1.616 4.086-14.438 7.037-27.813 11.661-40.578 9.129-25.199 33.121-36.217 63.06-29.937 18.659 3.914 35.304 28.288 34.22 50.328-.302 6.14-2.18 12.433-1.262 18.331.784 5.031 3.345 11.304 7.223 14.025 9.15 6.42 19.667 10.852 29.418 16.461 8.958 5.152 17.637 10.79 27.413 16.815-3.167-13.301-6.642-24.716-8.506-36.388-3.97-24.867-3.655-49.125 13.398-70.189 9.331-11.526 19.899-21.706 35.5-21.38 17.117.358 33.854 3.878 48.832 13.311 22.036 13.877 27.428 44.448 11.255 65.091-16.366 20.889-11.657 57.257 9.151 70.375 10.68 6.733 21.926 12.684 32.038 20.175 39.932 29.58 63.414 67.669 57.091 119.2-1.346 10.968 2.683 14.388 11.389 17.457 13.781 4.859 27.703 9.658 40.797 16.055 30.826 15.06 58.865 34.326 83.41 58.527 26.4 26.031 43.955 57.948 60.692 90.441 4.922 9.556 3.578 14.584-5.61 20.629-3.835 2.522-7.814 4.826-13.653 8.41l13.744 1.196c14.12 1.552 19.081 10.029 13.679 23.406M981.5 1547.7c-15.533-27.764-54.244-43.981-72.108-42.966-6.647.404-8.941 1.246-13.519 2.462-9.936 2.639-15.567 10.484-11.951 19.995 3.274 8.61 8.558 17.192 15.051 23.687 14.547 14.551 32.862 23.057 52.914 27.522 3.942.878 8.159 1.175 12.189.884 18.843-1.358 26.692-15.019 17.424-31.584m-10.539 40.261c-4.61 1.101-9.41 1.405-14.123 2.075-33.222-.409-68.781-22.888-80.642-51.396-8.976-21.577.298-38.699 23.182-42.104 18.105-2.694 34.63 3.321 49.973 11.778 17.82 9.824 33.929 22.049 41.455 42.226 6.778 18.17-1.076 32.94-19.845 37.421M933.3 1644.1c13.573 20.241 33.062 31.352 57.445 32.198 14.478.503 19.445-8.034 12.101-20.675-12.701-21.862-35.181-35.414-60.243-34.584-5.526.894-10.218 3.234-12.027 7.211-1.872 4.115-.113 11.62 2.724 15.85m17.594-33.906c28.925 2.716 48.016 15.903 61.812 42.746 8.761 17.046-1.249 33.434-20.439 35.12-25.277 2.222-58.222-16.16-69.73-38.904-10.742-21.231-2.171-40.606 28.357-38.962m85.706-6.894c10.294 15.303 26.086 21.558 43.744 22.279 12.53.512 17.991-9.772 11.018-20.217-10.143-15.193-28.32-24.522-46.214-23.852-5.3.851-9.453 3.064-11.632 7.141-1.839 3.441.389 10.641 3.084 14.649m12.236-33.054c23.625 1.064 41.829 10.767 55.71 30.739 11.236 16.165 2.817 33.69-16.786 35.42-24.183 2.135-44.196-6.538-60.019-24.681-7.082-8.121-11.112-17.633-5.819-28.262 5.021-10.082 13.672-12.76 26.914-13.216M841.46 1609.8c8.599 10.75 19.717 17.403 34.829 19.339 2.627.124 6.172-.319 7.298-2.347 1.106-1.991-.248-7.085-1.718-9.246-8.115-11.93-19.573-18.683-34.044-19.374-2.967-.142-7.401.446-8.732 3.557-.931 2.175.657 5.933 2.367 8.071m4.26-20.9c12.652-1.064 31.088 5.008 44.05 24.918 3.074 4.942 4.442 14.053 1.869 18.545-2.616 4.568-11.19 8.316-16.923 8.014-18.198-.958-33.684-9.055-43.042-25.211-2.829-4.884-3.779-13.19-1.522-18.025 2.908-4.287 6.973-7.519 15.568-8.241m-161.66-189.2c1.531-4.417 7.768-9.008 12.518-9.835 10.079-1.586 13.543 16.873 14.255 20.864l9.803 57.375c1.213 7.365 1.373 14.931-6.896 18.382-7.909 3.299-13.758-1.189-18.54-7.069-12.266-15.077-16.646-32.483-15.897-51.786 1.425-9.366 1.707-19.129 4.757-27.931m600.84 83.6c-3.371 2.879-10.645 4.08-14.639 2.439-3.4-1.397-7.051-8.341-6.488-12.236 3.452-23.895 7.502-47.748 12.762-71.3 1.117-5.006 4.574-13.01 12.32-13.01 9.269 0 11.176 8.685 12.73 14.173 2.825 9.978 2.555 20.834 3.485 30.375-1.061 19.577-5.461 36.998-20.17 49.559"/><path d="M1403.4 923.48c-1.006 2.102-1.148 4.604-1.804 6.887-2.494 8.691-3.549 18.187-7.8 25.918-25.473 46.302-54.933 90.415-74.476 139.96-4.024 10.203-11.208 19.649-18.662 27.877-7.867 13.559-37.299 22.215-50.606 14.482-10.422-7.137-19.929-13.304-28.827-20.233-1.776-1.383-2.157-6.52-1.169-9.174 2.498-6.711 5.237-13.332 7.978-19.952l6.363 4.569c32.815 23.723 57.555 34.782 81.189-33.705s40.953-108.63 65.563-134.18c23.362-24.252-3.709-89.605-63.67-100.08 8.418-11.456 14.642-25.359 18.458-42.086 20.865 14.049 40.131 27.95 54.227 47.688 20.215 28.308 29.349 58.365 13.236 92.019" fill="#6e9b18"/><path d="M1332.5 944.96c-1.788-.931-48.988-8.915-81.521-78.917 8.291-1.933 16.068-4.369 23.306-7.356 8.761 45.109 48.993 78.632 58.215 86.273" fill="#ccf975"/><path d="M1067.8 793.68c49.224 33.457 119.72 20.683 140.38 30.415 19.228 9.624 33.82 14.79 47.902 17.375-13.849 3.573-29.204 2.488-44.598-5.691-4.101-2.179-9.055-3.439-13.709-3.77l-92.94-5.975c-37.088-2.218-62.305-27.523-64.107-64.325-.423-8.642 2.016-15.717 7.615-21.522-4.889 16.134-4.782 37.538 19.459 53.493" fill="#ffd194"/><path d="M1133.2 717.91c-5.275-21.125-20.972-41.765-34.973-37.053 1.671-5.168 3.914-10.325 6.785-15.468 2.207-3.956 7.204-7.79 11.589-8.844 20.474-4.923 33.138 5.794 33.018 26.954l-.015 14.357c-.258 14.353 5.99 24.966 18.395 31.944 6.229 3.504 12.484 7.017 18.964 10.014l70.675 32.233c-.604-5.405-.146-9.698-1.621-13.169-11.633-27.379-11.484-55.337-3.479-83.282 2.553-8.912 7.555-17.564 13.217-24.971 3.32-4.343 10.113-8.268 15.411-8.356 9.001-.148 18.152 2.484 27.066 4.66 17.259 4.212 22.92 18.387 13.739 33.823-9.789 16.458-12.566 34.019-11.251 53.113 1.118 16.245 1.05 32.908-1.263 48.987-1.522 10.579-6.235 21.318-13.251 30.758-20.102-17.141-52.186-34.869-87.352-44.605-42.841-11.862-68.362-21.898-75.654-51.095" fill="#bf6d02"/><path d="M1241.7 924.74c-2.412 41.642-11.216 81.828-21.215 121.9-4.608 18.465-11.433 36.375-17.69 55.901l-11.628-9.72c-6.155-4.845-11.923-10.455-18.714-14.167-25.093-13.716-49.984-28.015-76-39.77-28.869-13.044-58.649-23.789-91.222-24.621-28.271-.723-56.136.651-82.568 11.183-24.977 9.953-50.409 19.52-73.732 32.655-22.38 12.605-46.575 23.125-64.89 42.262 40.122-43.893 122.57-108.98 201.37-108.98s150.5 31.632 172.38 47.448 36.462-14.599 44.97-64.481-8.477-98.545-63.793-92.462-106.1-17.033-148.16-15.816-75.424 21.899-129.84 10.949c-46.267-9.309-94.483 1.61-116.11 18.548a4.44 4.44 0 0 1 .657-1.054c14.869-17.193 30.481-33.992 54.813-36.471 23.41-2.386 46.943-3.623 70.442-5.041 30.108-1.818 59.047-8.118 79.005-32.425 10.887-13.259 17.246-30.242 26.293-46.722h35.858c.528 1.357 1.038 2.275 1.247 3.256 9.796 46.198 40.798 68.553 85.298 74.147 24.671 3.101 49.635 4.057 74.5 5.361 15.84.83 29.723 5.518 42.777 14.812 18.659 13.286 27.365 29.021 25.959 53.312" fill="#ceb495"/><path d="M743.26 1102.5c-8.367-22.657-43.734-113.79-33.226-171.44 5.128-3.43 10.526-7.364 16.17-11.853-.266 1.618.001 1.876-.081 2.604-.704 65.563 10.6 128.64 38.875 188.32.998 2.108.029 6.925-1.717 8.263-6.729 5.156-18.857 17.135-30.877 21.767 4.876-4.192 18.158-17.891 10.856-37.663" fill="#6e9b18"/><g fill="#ccf975"><path d="M669.35 1073.5c6.561 20.126 23.303 59.416 52.347 68.497-.982-.095-1.951-.274-2.903-.548-18.426-2.052-31.855-10.763-41.064-24.416-8.53-12.646-14.945-26.759-21.888-40.431-10.496-20.67-19.979-41.881-31.094-62.203-15.877-29.027-39.879-54.053-42.93-89.272 8.97 32.373 19.303 40.703 36.926 61.385s42.873 63.264 50.606 86.988m58.53-208.99l6.734 1.688c-28.97 57.664-67.016 77.929-82.708 77.391 8.571-3.682 50.667-32.16 75.974-79.079"/></g><path d="M581.58 924.27c-.406-.938-1.204-1.837-1.476-2.833-2.226-8.134-5.401-16.177-6.333-24.467-5.425-48.306 36.784-91.163 74.973-111.95 2.097 9.207 5.002 17.568 8.658 25.16-63.029 23.162-82.297 89.712-75.822 114.09" fill="#6e9b18"/><path d="M851.5 692.09c-1.215 20.074 6.685 33.457-24.308 50.743-29.189 16.279-78.329 41.595-145.24 60.239-3.072-6.206-5.372-12.918-6.813-19.982-2.965-14.523-3.471-30.115-1.878-44.872 2.297-21.286-.459-40.592-11.598-58.968-8.216-13.554-2.019-27.9 13.36-32.011 5.567-1.488 11.392-2.035 17.116-2.901 19.188-2.903 25.87-.643 34.156 16.877 14.367 30.377 14.999 61.873 3.851 93.648-1.77 5.045-2.367 10.502-3.829 17.262l16.886-7.89 73.911-34.949c11.899-5.92 17.854-16.498 17.699-30.131-.078-6.835-.25-13.681.057-20.503.469-10.455 8.232-20.666 16.504-22.264 15.694-3.032 24.085.458 30.303 12.208 4.254 8.039 6.568 16.396 7.563 24.939-9.92-23.518-36.821-16.704-37.745-1.445" fill="#bf6d02"/><path d="M812 818.01c21.1.982 87.759 5.526 122.25-23.183-10.812 17.921-29.852 29.696-53.192 31.102-13.968.841-28.131-.102-41.929 1.79-26.339 3.61-54.522-2.156-78.457 14.559-.755.527-1.981.408-2.995.528-6.657.792-13.033.81-19.089.144 13.869-19.758 48.963-26.078 73.416-24.94" fill="#ffd194"/><g fill="#305100"><path d="M1586.9 1090.1l-87.539 48.839c-8.894 4.938-17.951 9.58-29.295 15.613 58.391-5.645 114.18-7.364 136.5-7.895-.152.422-.458 1.746-1.073 2.906-15.981 30.132-37.21 56.344-60.837 80.669-2.495 2.569-7.215 4.479-10.752 4.26-12.869-.796-25.643-3.19-38.513-3.933-17.824-1.028-32.958-7.564-46.086-19.453-4.591-4.157-9.6-7.851-14.42-11.756 3.417 36.668 27.94 59.905 50.48 87.121l-53.54 33.382c-2.977-83.148-35.153-141.5-119.27-162.92 11.192.17 27.433 1.765 44.527 7.987 31.195 11.355 57.529 45.015 61.58 53.126-6.483-21.088-3.242-38.216-3.242-38.216 14.18 7.8 46.186 7.205 60.366 0s-5.672-23.617-29.17-22.913c32.006-17.14 62.796-80.809 49.831-106.76-14.585-25.954-68.467 26.36-68.467 26.36 23.015-44.978 15.243-100.51-34.49-70.551l25.966-43.764c3.218-5.765 6.33-7.301 12.733-6.493 40.341 5.094 74.594 23.355 105.27 48.864 23.013 19.138 42.257 41.44 54.731 69.274 3.757 8.384 1.453 12.483-5.293 16.252M556.28 1282.3c-2.304-50.912 27.828-124.28 62.467-130.97-44.842-7.816-71.709-57.789-97.232-91.246 0 0 43.146 24.333 74.139 52.923-15.8-22.507-23.7-69.347-63.201-94.288s-117.89 35.282-141.88 63.627c-.371-2.323.3-5.041 1.814-8.437 12.559-28.154 32.042-50.727 55.442-69.966 30.794-25.319 64.982-43.715 105.45-48.319 5.628-.641 8.583.547 11.264 5.668 6.171 11.786 12.364 23.675 19.841 34.64 21 30.797 34.945 64.71 46.547 99.872 7.421 22.49 19.252 42.235 39.5 55.831 1.313.882 2.398 2.103 5.003 4.429-73.152 16.942-108.24 61.981-119.15 126.24"/></g><g fill="#92c638"><path d="M552.62 1320l-53.961-33.752c6.108-6.442 11.63-12.551 16.602-18.365 11.808 8.684 24.862 17.55 39.289 26.522-.991 8.252-1.629 16.786-1.93 25.595m-79.2-86.6l-13.645 1.419c-8.038.728-16.459 1.263-22.38-6.529l-54.524-71.553c-2.448-3.246-3.744-7.361-5.668-11.266 11.431.918 21.992 2.479 32.324 2.938 7.392 17.757 24.631 48.436 63.893 84.991"/></g><path d="M667.97 1551l-9.723 6.692c7.292 17.032 55.908 29.807 78.393-7.3s30.385-63.872 38.285-91.854 52.87-21.012 45.577 57.928c-7.292 69.208-29.777 93.565-29.777 93.565 16.408 30.382 150.14 139.6 328.02 80.218-7.698 3.357-15.511 6.484-23.455 9.34-47.107 16.942-95.066 26.759-145.65 16.836-53.121-10.421-101.53-31.507-146.69-60.744-16.874-10.926-33.606-22.159-44.738-39.419 27.037-26.291 49.038-79.972 44.957-87.068-17.268 28.594-36.853 55.066-66.499 72.161-24.186 13.948-47.087 12.016-69.624-4.692-16.02-11.875-28.279-26.803-37.312-44.284-9.45-18.289-11.205-37.492-3.761-59.053 1.274 29.692 14.506 46.818 41.99 57.674" fill="#ccf975"/><path d="M1366.4 1410c-.647-.906-1.215-1.4-1.398-2.009l-2.202-7.883c-7.481-22.964-17.132-44.771-35.118-61.668-36.193-34.003-90.702-26.617-114.45 16.212-6.299 11.361-8.894 24.778-13.301 37.573-29.493 4.255-46.941 28.033-36.008 52.601l2.62-9.742c2.989-12.757 12.601-21.433 24.862-22.369 9.358-.715 17.544 5.564 22.069 18.093 3.82 10.575 6.079 21.74 10.224 32.168 9.167 23.064 17.68 46.569 29.191 68.455 7.687 14.615 19.775 27.112 36.841 32.468 7.837 2.46 15 2.274 19.737-3.825l-21.156-10.76c38.41-10.131 46.067-15.868 71.419-53.952 1.742 10.168 3.897 20.637 2.54 30.628-5.064 37.305-27.994 62.477-59.686 79.44-15.057 8.059-33.036 8.925-48.264-.75-14.247-9.051-28.138-19.414-39.893-31.445-12.884-13.188-23.144-28.946-35.107-44.301-.193 2.92 7.604 54.285 48.813 88.292-10.926 9.829-20.319 19.791-31.173 27.756a424.53 424.53 0 0 1-32.21 21.452c22.634-28.664 18.905-64.65-.918-103.29-36.462-71.072-31.601-152.08 10.938-186.14 26.738-24.332 13.369-64.873-42.539-109.21-40.937-32.463-178.66-72.068-293.43-23.403-111.86 47.432-185.86 84.457-220.28 93.004 6.88-1.932 13.421-6.202 19.935-10.83 6.943-4.932 13.934-9.871 21.298-14.121 24.229-13.985 49.551-26.282 72.786-41.739 46.781-31.123 97.954-52.402 150.33-71.377 36.89-13.364 75.345-15.132 114.06-15.155 31.552-.018 63.22 1.461 93.137 11.407 40.746 13.544 81.222 28.357 118.82 49.682l62.812 36.502c24.104 14.187 48.542 27.874 71.994 43.077 15.068 9.769 28.887 20.483 47.757 7.185.8.854-.33 43.759-25.043 77.972" fill="#6e9b18"/><path d="M615.93 1338.1l.144-.029-.141.032z" fill="#8dcb2a"/><g fill="#fff"><path d="M717.8 1461.8c0-8.735-7.074-15.816-15.8-15.816s-15.8 7.081-15.8 15.816 7.074 15.816 15.8 15.816 15.8-7.081 15.8-15.816m579.6 0c0-8.735-7.074-15.816-15.801-15.816s-15.8 7.081-15.8 15.816 7.075 15.816 15.8 15.816 15.801-7.081 15.801-15.816"/></g></g></g></svg>